<!-- Generated by IcoMoon.io -->
<svg version="1.1" xmlns="http://www.w3.org/2000/svg" width="37" height="32" viewBox="0 0 37 32">
<path d="M28.849 0h-20.364c-1.928 0.002-3.777 0.769-5.14 2.133s-2.13 3.212-2.133 5.14v17.455c0.002 1.928 0.769 3.777 2.133 5.14s3.212 2.13 5.14 2.133h20.364c1.928-0.002 3.777-0.769 5.14-2.133s2.13-3.212 2.133-5.14v-17.455c-0.002-1.928-0.769-3.777-2.133-5.14s-3.212-2.13-5.14-2.133zM8.485 2.909h20.364c1.157 0 2.267 0.46 3.085 1.278s1.278 1.928 1.278 3.086v1.455h-29.091v-1.455c0-1.157 0.46-2.267 1.278-3.086s1.928-1.278 3.086-1.278zM28.849 29.091h-20.364c-1.157 0-2.267-0.46-3.086-1.278s-1.278-1.928-1.278-3.085v-13.091h29.091v13.091c0 1.157-0.46 2.267-1.278 3.085s-1.928 1.278-3.085 1.278zM28.849 17.455c0 0.386-0.153 0.756-0.426 1.029s-0.643 0.426-1.028 0.426h-17.455c-0.386 0-0.756-0.153-1.029-0.426s-0.426-0.643-0.426-1.029c0-0.386 0.153-0.756 0.426-1.029s0.643-0.426 1.029-0.426h17.455c0.386 0 0.756 0.153 1.028 0.426s0.426 0.643 0.426 1.029zM23.030 23.273c0 0.386-0.153 0.756-0.426 1.029s-0.643 0.426-1.029 0.426h-11.636c-0.386 0-0.756-0.153-1.029-0.426s-0.426-0.643-0.426-1.029c0-0.386 0.153-0.756 0.426-1.028s0.643-0.426 1.029-0.426h11.636c0.386 0 0.756 0.153 1.029 0.426s0.426 0.643 0.426 1.028zM5.576 5.818c0-0.288 0.085-0.569 0.245-0.808s0.387-0.426 0.653-0.536c0.266-0.11 0.558-0.139 0.84-0.083s0.541 0.195 0.745 0.398c0.203 0.203 0.342 0.463 0.398 0.745s0.027 0.575-0.083 0.84c-0.11 0.266-0.297 0.493-0.536 0.653s-0.52 0.245-0.808 0.245c-0.386 0-0.756-0.153-1.029-0.426s-0.426-0.643-0.426-1.029zM9.939 5.818c0-0.288 0.085-0.569 0.245-0.808s0.387-0.426 0.653-0.536c0.266-0.11 0.558-0.139 0.84-0.083s0.541 0.195 0.745 0.398c0.203 0.203 0.342 0.463 0.398 0.745s0.027 0.575-0.083 0.84c-0.11 0.266-0.297 0.493-0.536 0.653s-0.52 0.245-0.808 0.245c-0.386 0-0.756-0.153-1.029-0.426s-0.426-0.643-0.426-1.029zM14.303 5.818c0-0.288 0.085-0.569 0.245-0.808s0.387-0.426 0.653-0.536 0.558-0.139 0.84-0.083c0.282 0.056 0.541 0.195 0.745 0.398s0.342 0.463 0.398 0.745 0.027 0.575-0.083 0.84c-0.11 0.266-0.296 0.493-0.536 0.653s-0.521 0.245-0.808 0.245c-0.386 0-0.756-0.153-1.029-0.426s-0.426-0.643-0.426-1.029z"></path>
</svg>
