<!-- Generated by IcoMoon.io -->
<svg version="1.1" xmlns="http://www.w3.org/2000/svg" width="32" height="32" viewBox="0 0 32 32">
<path d="M25.333 0h-18.667c-1.767 0.002-3.462 0.705-4.712 1.955s-1.953 2.944-1.955 4.712v6.667c0.003 2.474 0.988 4.847 2.737 6.596s4.122 2.734 6.596 2.737h2.667v5.333c0 1.061 0.421 2.078 1.172 2.828s1.768 1.172 2.828 1.172c1.061 0 2.078-0.421 2.828-1.172s1.172-1.768 1.172-2.828v-5.333h2.667c2.474-0.003 4.847-0.987 6.596-2.737s2.734-4.122 2.737-6.596v-6.667c-0.002-1.767-0.705-3.462-1.955-4.712s-2.944-1.953-4.712-1.955v0zM2.667 6.667c0-1.061 0.421-2.078 1.172-2.828s1.768-1.172 2.828-1.172h6.667v1.333c0 0.354 0.141 0.693 0.391 0.943s0.589 0.391 0.943 0.391c0.354 0 0.693-0.14 0.943-0.391s0.391-0.589 0.391-0.943v-1.333h2.667v4c0 0.354 0.141 0.693 0.391 0.943s0.589 0.391 0.943 0.391c0.354 0 0.693-0.14 0.943-0.391s0.391-0.589 0.391-0.943v-4h2.667v6.667c0 0.354 0.141 0.693 0.391 0.943s0.589 0.391 0.943 0.391c0.354 0 0.693-0.14 0.943-0.391s0.391-0.589 0.391-0.943v-6.421c0.777 0.275 1.451 0.783 1.928 1.455s0.735 1.475 0.739 2.3v6.667h-26.667v-6.667zM22.667 20h-4c-0.354 0-0.693 0.141-0.943 0.391s-0.391 0.589-0.391 0.943v6.667c0 0.354-0.141 0.693-0.391 0.943s-0.589 0.391-0.943 0.391c-0.354 0-0.693-0.141-0.943-0.391s-0.391-0.589-0.391-0.943v-6.667c0-0.354-0.141-0.693-0.391-0.943s-0.589-0.391-0.943-0.391h-4c-1.296-0.002-2.563-0.381-3.646-1.091s-1.937-1.721-2.455-2.909h25.536c-0.518 1.187-1.371 2.198-2.455 2.909s-2.351 1.090-3.646 1.091z"></path>
</svg>
