<!-- Generated by IcoMoon.io -->
<svg version="1.1" xmlns="http://www.w3.org/2000/svg" width="32" height="32" viewBox="0 0 32 32">
<path d="M30.533 11.94c-0.441-0.224-0.937-0.319-1.43-0.276s-0.964 0.224-1.36 0.521l-2.444 1.815c-0.167-1.644-0.938-3.167-2.163-4.275s-2.818-1.723-4.47-1.725h-0.113l-5.496-5.495c-0.37-0.373-0.811-0.668-1.296-0.87s-1.006-0.304-1.532-0.302h-8.896c-0.354 0-0.693 0.14-0.943 0.391s-0.391 0.589-0.391 0.943c0 0.354 0.14 0.693 0.391 0.943s0.589 0.391 0.943 0.391h8.896c0.353 0.001 0.692 0.141 0.943 0.391l3.609 3.609h-8.115c-1.767 0.002-3.462 0.705-4.712 1.955s-1.953 2.944-1.955 4.712v10.667c0.002 1.767 0.705 3.462 1.955 4.712s2.944 1.953 4.712 1.955h12c1.652-0.002 3.245-0.617 4.47-1.725s1.996-2.631 2.163-4.275l2.44 1.819c0.396 0.297 0.867 0.478 1.361 0.523s0.989-0.049 1.432-0.271 0.815-0.562 1.076-0.983c0.26-0.421 0.398-0.907 0.398-1.402v-11.361c0.002-0.495-0.135-0.981-0.396-1.403s-0.634-0.761-1.077-0.981zM22.667 25.333c0 1.061-0.421 2.078-1.172 2.828s-1.768 1.172-2.828 1.172h-12c-1.061 0-2.078-0.421-2.828-1.172s-1.172-1.767-1.172-2.828v-10.667c0-1.061 0.421-2.078 1.172-2.828s1.768-1.172 2.828-1.172h12c1.061 0 2.078 0.421 2.828 1.172s1.172 1.768 1.172 2.828v10.667zM29.333 25.676l-4-2.981v-5.389l4-2.981v11.352z"></path>
</svg>
