<!-- Generated by IcoMoon.io -->
<svg version="1.1" xmlns="http://www.w3.org/2000/svg" width="32" height="32" viewBox="0 0 32 32">
<path d="M24.875 1.24l-16.256 16.256c-0.621 0.618-1.113 1.352-1.448 2.161s-0.506 1.676-0.504 2.552v1.791c0 0.354 0.14 0.693 0.391 0.943s0.589 0.391 0.943 0.391h1.791c0.876 0.003 1.743-0.169 2.552-0.504s1.544-0.827 2.161-1.448l16.256-16.256c0.779-0.781 1.217-1.839 1.217-2.943s-0.438-2.162-1.217-2.943c-0.792-0.757-1.846-1.18-2.943-1.18s-2.15 0.423-2.943 1.18zM28.875 5.24l-16.256 16.256c-0.752 0.747-1.768 1.168-2.828 1.171h-0.457v-0.457c0.003-1.060 0.423-2.076 1.171-2.828l16.256-16.256c0.285-0.272 0.663-0.424 1.057-0.424s0.773 0.152 1.057 0.424c0.28 0.281 0.437 0.661 0.437 1.057s-0.157 0.777-0.437 1.057z"></path>
<path d="M30.667 11.972c-0.354 0-0.693 0.14-0.943 0.391s-0.391 0.589-0.391 0.943v6.695h-5.333c-1.061 0-2.078 0.421-2.828 1.172s-1.172 1.768-1.172 2.828v5.333h-13.333c-1.061 0-2.078-0.421-2.828-1.172s-1.172-1.768-1.172-2.828v-18.667c0-1.061 0.421-2.078 1.172-2.828s1.768-1.172 2.828-1.172h12.056c0.354 0 0.693-0.14 0.943-0.391s0.391-0.589 0.391-0.943c0-0.354-0.141-0.693-0.391-0.943s-0.589-0.391-0.943-0.391h-12.056c-1.767 0.002-3.462 0.705-4.712 1.955s-1.953 2.944-1.955 4.712v18.667c0.002 1.767 0.705 3.462 1.955 4.712s2.944 1.953 4.712 1.955h15.124c0.876 0.003 1.744-0.169 2.553-0.504s1.544-0.827 2.162-1.448l3.541-3.544c0.621-0.617 1.113-1.352 1.449-2.161s0.507-1.677 0.505-2.552v-8.485c0-0.354-0.141-0.693-0.391-0.943s-0.589-0.391-0.943-0.391zM24.62 28.163c-0.536 0.535-1.214 0.905-1.953 1.067v-5.229c0-0.354 0.141-0.693 0.391-0.943s0.589-0.391 0.943-0.391h5.233c-0.165 0.738-0.535 1.415-1.067 1.952l-3.547 3.544z"></path>
</svg>
