<!-- Generated by IcoMoon.io -->
<svg version="1.1" xmlns="http://www.w3.org/2000/svg" width="32" height="32" viewBox="0 0 32 32">
<path d="M8.62 29.713c-0.291-0-0.575-0.096-0.807-0.272s-0.4-0.424-0.478-0.705-0.062-0.579 0.046-0.85c0.108-0.271 0.302-0.499 0.551-0.649 4.724-2.837 4.724-8.931 4.724-12.571 0-1.061 0.421-2.078 1.172-2.829s1.768-1.172 2.829-1.172c1.061 0 2.078 0.421 2.828 1.172s1.172 1.768 1.172 2.829c0 0.354-0.141 0.693-0.391 0.943s-0.589 0.391-0.943 0.391c-0.354 0-0.693-0.141-0.943-0.391s-0.391-0.589-0.391-0.943c0-0.354-0.141-0.693-0.391-0.943s-0.589-0.39-0.943-0.39c-0.354 0-0.693 0.14-0.943 0.39s-0.391 0.589-0.391 0.943c0 3.929 0 11.245-6.019 14.857-0.207 0.124-0.444 0.189-0.685 0.189zM15.237 31.608c3.043-3.067 4.82-7.379 5.281-12.828 0.015-0.175-0.004-0.351-0.056-0.518s-0.138-0.323-0.251-0.457c-0.113-0.134-0.251-0.245-0.407-0.326s-0.326-0.13-0.501-0.145c-0.175-0.018-0.352-0.001-0.52 0.051s-0.324 0.137-0.459 0.25c-0.135 0.113-0.245 0.253-0.324 0.409s-0.127 0.328-0.139 0.504c-0.415 4.876-1.892 8.533-4.517 11.175-0.249 0.251-0.389 0.591-0.388 0.944s0.143 0.693 0.394 0.942c0.251 0.249 0.591 0.389 0.944 0.388s0.693-0.143 0.942-0.394v0.005zM22.171 31.36c0.809-1.344 1.482-2.765 2.011-4.241 0.11-0.33 0.087-0.691-0.065-1.004s-0.42-0.555-0.748-0.673c-0.328-0.118-0.689-0.103-1.005 0.041s-0.565 0.407-0.69 0.732c-0.469 1.309-1.067 2.569-1.784 3.761-0.091 0.15-0.151 0.316-0.178 0.489s-0.019 0.35 0.023 0.52c0.042 0.17 0.117 0.331 0.22 0.472s0.234 0.261 0.384 0.352c0.302 0.183 0.665 0.239 1.009 0.155 0.17-0.042 0.331-0.117 0.472-0.22s0.261-0.234 0.352-0.384zM25.324 22.921c0.494-2.723 0.717-5.488 0.667-8.255-0.001-1.889-0.576-3.733-1.647-5.289s-2.59-2.749-4.354-3.424c-1.765-0.674-3.692-0.797-5.528-0.353s-3.494 1.436-4.754 2.842c-0.123 0.129-0.218 0.282-0.281 0.449s-0.091 0.345-0.084 0.523c0.007 0.178 0.050 0.353 0.126 0.514s0.184 0.306 0.316 0.425c0.133 0.119 0.288 0.21 0.457 0.268s0.347 0.081 0.525 0.069c0.178-0.012 0.352-0.060 0.511-0.141s0.3-0.192 0.415-0.329c0.9-1.005 2.084-1.713 3.396-2.031s2.688-0.23 3.949 0.252 2.345 1.334 3.111 2.445c0.765 1.111 1.176 2.428 1.177 3.778 0.049 2.596-0.157 5.19-0.616 7.745-0.067 0.347 0.006 0.706 0.203 0.999s0.503 0.496 0.85 0.563c0.085 0.017 0.171 0.025 0.257 0.025 0.309-0.001 0.608-0.109 0.846-0.306s0.4-0.47 0.459-0.773zM9.991 14.667c-0-0.372 0.030-0.744 0.092-1.111 0.040-0.177 0.043-0.36 0.010-0.538s-0.102-0.347-0.203-0.498c-0.101-0.15-0.231-0.279-0.383-0.377s-0.323-0.165-0.501-0.195c-0.179-0.030-0.361-0.024-0.537 0.019s-0.341 0.121-0.486 0.23c-0.145 0.109-0.266 0.246-0.356 0.403s-0.147 0.331-0.168 0.511c-0.088 0.514-0.133 1.034-0.133 1.556 0 6.193-1.795 9.333-5.333 9.333-0.354 0-0.693 0.14-0.943 0.39s-0.391 0.589-0.391 0.943c0 0.354 0.14 0.693 0.391 0.943s0.589 0.391 0.943 0.391c5.159 0 8-4.267 8-12zM28.257 31.219c2.194-5.235 3.24-10.879 3.067-16.552 0.006-2.215-0.496-4.402-1.467-6.392-0.077-0.158-0.184-0.299-0.315-0.415s-0.284-0.206-0.449-0.263c-0.166-0.057-0.341-0.081-0.516-0.071s-0.346 0.055-0.504 0.132c-0.158 0.077-0.299 0.184-0.415 0.315s-0.205 0.284-0.263 0.449c-0.057 0.166-0.081 0.341-0.071 0.516s0.055 0.346 0.132 0.504c0.793 1.627 1.204 3.415 1.2 5.225 0.168 5.292-0.795 10.558-2.825 15.448-0.072 0.16-0.112 0.332-0.118 0.507s0.023 0.35 0.085 0.514c0.062 0.164 0.155 0.314 0.275 0.442s0.264 0.231 0.424 0.303c0.173 0.079 0.361 0.12 0.551 0.12 0.255-0.001 0.504-0.075 0.718-0.214s0.384-0.335 0.49-0.567zM4.657 18.667v-4c0.004-3.182 1.269-6.232 3.519-8.481s5.3-3.515 8.481-3.519c2.598-0.009 5.127 0.834 7.2 2.4 0.283 0.212 0.638 0.303 0.989 0.253s0.666-0.237 0.878-0.52c0.212-0.283 0.303-0.638 0.253-0.989s-0.237-0.666-0.52-0.878c-2.534-1.913-5.625-2.943-8.8-2.933-3.889 0.005-7.616 1.551-10.366 4.301s-4.296 6.477-4.301 10.366v4c0 0.354 0.14 0.693 0.391 0.943s0.589 0.391 0.943 0.391 0.693-0.141 0.943-0.391c0.25-0.25 0.391-0.589 0.391-0.943z"></path>
</svg>
