<!-- Generated by IcoMoon.io -->
<svg version="1.1" xmlns="http://www.w3.org/2000/svg" width="141" height="32" viewBox="0 0 141 32">
<path fill="#0f1138" d="M30.818 0.033c-0.009 0.003-0.018 0.005-0.028 0.007-0.002 0.001-0.005 0.001-0.007 0.002l-30.123 9.348c-0.392 0.122-0.659 0.484-0.66 0.894s0.265 0.774 0.657 0.896l11.615 3.647-2.194 5.886c-0.128 0.344-0.044 0.731 0.216 0.991s0.647 0.344 0.991 0.216l5.886-2.194 3.647 11.615c0.123 0.391 0.485 0.657 0.895 0.657 0 0 0.001 0 0.002 0 0.41-0.001 0.773-0.268 0.894-0.66l9.348-30.123c0.001-0.002 0.001-0.005 0.002-0.007 0.003-0.009 0.005-0.018 0.007-0.027 0.19-0.702-0.456-1.336-1.149-1.149zM4.086 10.292l22.14-6.871-12.91 9.769-9.23-2.898zM12.553 19.447l1.727-4.633 11.946-9.040-9.040 11.946-4.633 1.727zM21.708 27.914l-2.898-9.23 9.769-12.91-6.871 22.14z"></path>
<path fill="#1a75e8" d="M7.453 19.241c-0.366-0.366-0.96-0.366-1.327 0l-5.628 5.628c-0.366 0.366-0.366 0.96 0 1.326s0.96 0.366 1.327 0l5.628-5.628c0.366-0.366 0.366-0.96 0-1.326z"></path>
<path fill="#1a75e8" d="M12.759 24.547c-0.366-0.366-0.96-0.366-1.327 0l-5.628 5.628c-0.366 0.366-0.366 0.96 0 1.326s0.96 0.366 1.327 0l5.628-5.628c0.366-0.366 0.366-0.96 0-1.326z"></path>
<path fill="#1a75e8" d="M8.23 23.77c-0.366-0.366-0.96-0.366-1.327 0l-6.629 6.629c-0.366 0.366-0.366 0.96 0 1.326s0.96 0.366 1.327 0l6.629-6.629c0.366-0.366 0.366-0.96 0-1.327z"></path>
<path fill="#0f1138" d="M51.050 17.442h-4.8v4.958h-2.5v-12.133h7.9v2.025h-5.4v3.133h4.8v2.017z"></path>
<path fill="#0f1138" d="M55.483 22.4h-2.417v-9.017h2.417v9.017zM52.925 11.050c0-0.361 0.119-0.658 0.358-0.892 0.244-0.233 0.575-0.35 0.992-0.35 0.411 0 0.739 0.117 0.983 0.35s0.367 0.531 0.367 0.892c0 0.367-0.125 0.667-0.375 0.9-0.244 0.233-0.569 0.35-0.975 0.35s-0.733-0.117-0.983-0.35c-0.244-0.233-0.367-0.533-0.367-0.9z"></path>
<path fill="#0f1138" d="M59.692 13.383l0.075 1.042c0.644-0.806 1.508-1.208 2.592-1.208 0.956 0 1.667 0.281 2.133 0.842s0.706 1.4 0.717 2.517v5.825h-2.408v-5.767c0-0.511-0.111-0.881-0.333-1.108-0.222-0.233-0.592-0.35-1.108-0.35-0.678 0-1.186 0.289-1.525 0.867v6.358h-2.408v-9.017h2.267z"></path>
<path fill="#0f1138" d="M66.667 17.825c0-1.406 0.314-2.525 0.942-3.358 0.633-0.833 1.497-1.25 2.592-1.25 0.878 0 1.603 0.328 2.175 0.983v-4.6h2.417v12.8h-2.175l-0.117-0.958c-0.6 0.75-1.372 1.125-2.317 1.125-1.061 0-1.914-0.417-2.558-1.25-0.639-0.839-0.958-2.003-0.958-3.492zM69.075 18c0 0.844 0.147 1.492 0.442 1.942s0.722 0.675 1.283 0.675c0.744 0 1.269-0.314 1.575-0.942v-3.558c-0.3-0.628-0.82-0.942-1.558-0.942-1.161 0-1.742 0.942-1.742 2.825z"></path>
<path fill="#0f1138" d="M81 15.733l2.525-5.467h2.733l-3.983 7.733v4.4h-2.542v-4.4l-3.983-7.733h2.742l2.508 5.467z"></path>
<path fill="#0f1138" d="M86.283 17.808c0-0.894 0.172-1.692 0.517-2.392s0.839-1.242 1.483-1.625c0.65-0.383 1.403-0.575 2.258-0.575 1.217 0 2.208 0.372 2.975 1.117 0.772 0.744 1.203 1.756 1.292 3.033l0.017 0.617c0 1.383-0.386 2.494-1.158 3.333-0.772 0.833-1.808 1.25-3.108 1.25s-2.339-0.417-3.117-1.25c-0.772-0.833-1.158-1.967-1.158-3.4v-0.108zM88.692 17.983c0 0.856 0.161 1.511 0.483 1.967 0.322 0.45 0.783 0.675 1.383 0.675 0.583 0 1.039-0.222 1.367-0.667 0.328-0.45 0.492-1.167 0.492-2.15 0-0.839-0.164-1.489-0.492-1.95s-0.789-0.692-1.383-0.692c-0.589 0-1.044 0.23-1.367 0.692-0.322 0.456-0.483 1.164-0.483 2.125z"></path>
<path fill="#0f1138" d="M101.708 21.483c-0.594 0.722-1.417 1.083-2.467 1.083-0.967 0-1.706-0.278-2.217-0.833-0.505-0.556-0.764-1.369-0.775-2.442v-5.908h2.408v5.825c0 0.939 0.428 1.408 1.283 1.408 0.817 0 1.378-0.283 1.683-0.85v-6.383h2.417v9.017h-2.267l-0.067-0.917z"></path>
<path fill="#0f1138" d="M110.925 15.642c-0.327-0.044-0.617-0.067-0.866-0.067-0.911 0-1.508 0.308-1.792 0.925v5.9h-2.408v-9.017h2.275l0.067 1.075c0.483-0.828 1.152-1.242 2.007-1.242 0.267 0 0.517 0.036 0.75 0.108l-0.033 2.317z"></path>
<path fill="#1a75e8" d="M117.975 10.267h2.499v8.4c0 0.772-0.172 1.456-0.516 2.050-0.339 0.589-0.819 1.044-1.442 1.367-0.622 0.322-1.325 0.483-2.108 0.483-1.283 0-2.284-0.325-3.001-0.975-0.717-0.656-1.075-1.581-1.075-2.775h2.517c0 0.594 0.125 1.033 0.374 1.317 0.251 0.283 0.645 0.425 1.184 0.425 0.478 0 0.859-0.164 1.141-0.492 0.284-0.328 0.426-0.794 0.426-1.4v-8.4z"></path>
<path fill="#1a75e8" d="M122.083 17.808c0-0.894 0.173-1.692 0.517-2.392 0.343-0.7 0.838-1.242 1.483-1.625 0.651-0.383 1.403-0.575 2.258-0.575 1.217 0 2.209 0.372 2.975 1.117 0.772 0.744 1.203 1.756 1.292 3.033l0.017 0.617c0 1.383-0.386 2.494-1.158 3.333-0.772 0.833-1.808 1.25-3.108 1.25s-2.339-0.417-3.117-1.25c-0.772-0.833-1.158-1.967-1.158-3.4v-0.108zM124.492 17.983c0 0.856 0.161 1.511 0.483 1.967 0.322 0.45 0.783 0.675 1.383 0.675 0.583 0 1.039-0.222 1.366-0.667 0.327-0.45 0.492-1.167 0.492-2.15 0-0.839-0.164-1.489-0.492-1.95s-0.788-0.692-1.383-0.692c-0.589 0-1.044 0.23-1.366 0.692-0.322 0.456-0.483 1.164-0.483 2.125z"></path>
<path fill="#1a75e8" d="M140.234 17.975c0 1.444-0.308 2.572-0.925 3.383-0.618 0.806-1.478 1.208-2.583 1.208-0.978 0-1.759-0.375-2.342-1.125l-0.108 0.958h-2.166v-12.8h2.407v4.592c0.556-0.65 1.286-0.975 2.192-0.975 1.1 0 1.962 0.406 2.583 1.217 0.627 0.806 0.942 1.942 0.942 3.408v0.133zM137.825 17.8c0-0.911-0.144-1.575-0.433-1.992-0.289-0.422-0.72-0.633-1.292-0.633-0.767 0-1.295 0.314-1.584 0.942v3.558c0.294 0.633 0.828 0.95 1.6 0.95 0.779 0 1.29-0.383 1.534-1.15 0.116-0.367 0.175-0.925 0.175-1.675z"></path>
</svg>
