<!-- Generated by IcoMoon.io -->
<svg version="1.1" xmlns="http://www.w3.org/2000/svg" width="32" height="32" viewBox="0 0 32 32">
<path d="M25.333 8h-6.239c-0.531-0.379-1.129-0.655-1.761-0.816v-0.517l4.707-2.203c0.193-0.12 0.352-0.286 0.463-0.485s0.168-0.422 0.168-0.649-0.058-0.45-0.168-0.649c-0.11-0.198-0.27-0.365-0.463-0.485l-4.267-2c-0.333-0.156-0.7-0.225-1.067-0.201s-0.722 0.141-1.032 0.338c-0.31 0.198-0.565 0.471-0.741 0.794s-0.268 0.685-0.267 1.052v5.003c-0.632 0.16-1.229 0.437-1.76 0.816h-6.24c-1.767 0.002-3.462 0.705-4.712 1.955s-1.953 2.944-1.955 4.712v13.333c0 1.061 0.421 2.078 1.172 2.828s1.768 1.172 2.828 1.172h24c1.061 0 2.078-0.421 2.828-1.172s1.172-1.767 1.172-2.828v-13.333c-0.002-1.767-0.705-3.462-1.955-4.712s-2.944-1.953-4.712-1.955zM29.088 13.333h-2.879c-1.060-0.003-2.077-0.424-2.828-1.172l-1.496-1.495h3.448c0.824 0.003 1.627 0.261 2.3 0.739s1.18 1.151 1.455 1.928zM6.667 10.667h3.448l-1.496 1.495c-0.751 0.748-1.768 1.169-2.828 1.172h-2.879c0.275-0.777 0.783-1.451 1.455-1.928s1.475-0.735 2.3-0.739zM17.333 29.333h-2.667v-4c0-0.354 0.141-0.693 0.391-0.943s0.589-0.391 0.943-0.391c0.354 0 0.693 0.141 0.943 0.391s0.391 0.589 0.391 0.943v4zM28 29.333h-8v-4c0-1.061-0.421-2.078-1.172-2.828s-1.768-1.172-2.828-1.172c-1.061 0-2.078 0.421-2.828 1.172s-1.172 1.768-1.172 2.828v4h-8c-0.354 0-0.693-0.141-0.943-0.391s-0.391-0.589-0.391-0.943v-12h3.124c0.876 0.002 1.743-0.169 2.552-0.505s1.544-0.828 2.161-1.449l3.611-3.609c0.5-0.5 1.178-0.781 1.885-0.781s1.385 0.281 1.885 0.781l3.611 3.609c0.617 0.621 1.352 1.113 2.161 1.449s1.677 0.507 2.552 0.505h3.124v12c0 0.354-0.141 0.693-0.391 0.943s-0.589 0.391-0.943 0.391zM9.333 20c0 0.354-0.14 0.693-0.391 0.943s-0.589 0.391-0.943 0.391h-1.333c-0.354 0-0.693-0.141-0.943-0.391s-0.391-0.589-0.391-0.943c0-0.354 0.14-0.693 0.391-0.943s0.589-0.391 0.943-0.391h1.333c0.354 0 0.693 0.141 0.943 0.391s0.391 0.589 0.391 0.943zM9.333 25.333c0 0.354-0.14 0.693-0.391 0.943s-0.589 0.391-0.943 0.391h-1.333c-0.354 0-0.693-0.141-0.943-0.391s-0.391-0.589-0.391-0.943c0-0.354 0.14-0.693 0.391-0.943s0.589-0.391 0.943-0.391h1.333c0.354 0 0.693 0.141 0.943 0.391s0.391 0.589 0.391 0.943zM26.667 20c0 0.354-0.141 0.693-0.391 0.943s-0.589 0.391-0.943 0.391h-1.333c-0.354 0-0.693-0.141-0.943-0.391s-0.391-0.589-0.391-0.943c0-0.354 0.141-0.693 0.391-0.943s0.589-0.391 0.943-0.391h1.333c0.354 0 0.693 0.141 0.943 0.391s0.391 0.589 0.391 0.943zM26.667 25.333c0 0.354-0.141 0.693-0.391 0.943s-0.589 0.391-0.943 0.391h-1.333c-0.354 0-0.693-0.141-0.943-0.391s-0.391-0.589-0.391-0.943c0-0.354 0.141-0.693 0.391-0.943s0.589-0.391 0.943-0.391h1.333c0.354 0 0.693 0.141 0.943 0.391s0.391 0.589 0.391 0.943zM18.667 16c0 0.527-0.156 1.043-0.449 1.481s-0.709 0.78-1.197 0.982c-0.487 0.202-1.023 0.255-1.541 0.152s-0.992-0.357-1.365-0.73-0.627-0.848-0.73-1.365c-0.103-0.517-0.050-1.053 0.152-1.541s0.544-0.904 0.982-1.197c0.439-0.293 0.954-0.449 1.481-0.449 0.707 0 1.385 0.281 1.886 0.781s0.781 1.178 0.781 1.886z"></path>
</svg>
