<!-- Generated by IcoMoon.io -->
<svg version="1.1" xmlns="http://www.w3.org/2000/svg" width="32" height="32" viewBox="0 0 32 32">
<path d="M31.626 29.742l-7.952-7.952c2.167-2.65 3.233-6.032 2.976-9.446s-1.815-6.599-4.354-8.895c-2.539-2.297-5.863-3.53-9.286-3.444s-6.681 1.483-9.102 3.904c-2.421 2.421-3.819 5.679-3.904 9.102s1.148 6.747 3.444 9.286c2.297 2.539 5.481 4.098 8.895 4.354s6.796-0.809 9.446-2.976l7.952 7.952c0.251 0.243 0.588 0.377 0.937 0.374s0.684-0.143 0.931-0.39 0.387-0.581 0.39-0.931c0.003-0.349-0.131-0.686-0.374-0.937zM13.365 24.023c-2.108 0-4.169-0.625-5.921-1.796s-3.119-2.836-3.925-4.783-1.018-4.090-0.607-6.158c0.411-2.067 1.426-3.966 2.917-5.457s3.39-2.506 5.457-2.917c2.067-0.411 4.21-0.2 6.158 0.607s3.612 2.173 4.783 3.925c1.171 1.753 1.796 3.813 1.796 5.921-0.003 2.826-1.127 5.535-3.125 7.533s-4.707 3.122-7.533 3.125z"></path>
</svg>
