<!-- Generated by IcoMoon.io -->
<svg version="1.1" xmlns="http://www.w3.org/2000/svg" width="32" height="32" viewBox="0 0 32 32">
<path d="M25.333 1.333h-18.667c-1.767 0.002-3.462 0.705-4.712 1.955s-1.953 2.944-1.955 4.712v16c0.002 1.767 0.705 3.462 1.955 4.712s2.944 1.953 4.712 1.955h18.667c1.767-0.002 3.462-0.705 4.712-1.955s1.953-2.944 1.955-4.712v-16c-0.002-1.767-0.705-3.462-1.955-4.712s-2.944-1.953-4.712-1.955zM6.667 4h18.667c0.798 0.002 1.578 0.242 2.239 0.69s1.172 1.084 1.468 1.826l-10.211 10.212c-0.751 0.748-1.769 1.169-2.829 1.169s-2.078-0.42-2.829-1.169l-10.211-10.212c0.296-0.741 0.808-1.377 1.468-1.826s1.44-0.689 2.239-0.69zM25.333 28h-18.667c-1.061 0-2.078-0.421-2.828-1.172s-1.172-1.767-1.172-2.828v-14l8.619 8.613c1.252 1.248 2.947 1.949 4.715 1.949s3.463-0.701 4.715-1.949l8.619-8.613v14c0 1.061-0.421 2.078-1.172 2.828s-1.767 1.172-2.828 1.172z"></path>
</svg>
